<mxfile host="app.diagrams.net" modified="2023-09-28T02:34:44.462Z" agent="Mozilla/5.0 (Windows NT 10.0; Win64; x64) AppleWebKit/537.36 (KHTML, like Gecko) Chrome/117.0.0.0 Safari/537.36" etag="2_mOB6qkiR-tJpeMxnH8" version="21.8.2" type="github">
  <diagram name="第 1 页" id="cUeSnqwoEKw-XSXRfaBt">
    <mxGraphModel dx="2261" dy="758" grid="1" gridSize="10" guides="1" tooltips="1" connect="1" arrows="1" fold="1" page="1" pageScale="1" pageWidth="827" pageHeight="1169" math="0" shadow="0">
      <root>
        <mxCell id="0" />
        <mxCell id="1" parent="0" />
        <mxCell id="ugzp6V2DVJSi0lXBUaWw-8" style="edgeStyle=orthogonalEdgeStyle;rounded=0;orthogonalLoop=1;jettySize=auto;html=1;" edge="1" parent="1" source="ugzp6V2DVJSi0lXBUaWw-1" target="ugzp6V2DVJSi0lXBUaWw-5">
          <mxGeometry relative="1" as="geometry" />
        </mxCell>
        <mxCell id="ugzp6V2DVJSi0lXBUaWw-1" value="客户端" style="verticalLabelPosition=bottom;verticalAlign=top;html=1;shadow=0;dashed=0;strokeWidth=1;shape=mxgraph.android.phone2;strokeColor=#c0c0c0;" vertex="1" parent="1">
          <mxGeometry x="240" y="100" width="50" height="100" as="geometry" />
        </mxCell>
        <mxCell id="ugzp6V2DVJSi0lXBUaWw-9" style="edgeStyle=orthogonalEdgeStyle;rounded=0;orthogonalLoop=1;jettySize=auto;html=1;" edge="1" parent="1" source="ugzp6V2DVJSi0lXBUaWw-2" target="ugzp6V2DVJSi0lXBUaWw-5">
          <mxGeometry relative="1" as="geometry" />
        </mxCell>
        <mxCell id="ugzp6V2DVJSi0lXBUaWw-2" value="座席端" style="fontColor=#000000;verticalAlign=top;verticalLabelPosition=bottom;labelPosition=center;align=center;html=1;outlineConnect=0;fillColor=#CCCCCC;strokeColor=#6881B3;gradientColor=none;gradientDirection=north;strokeWidth=2;shape=mxgraph.networks.pc;" vertex="1" parent="1">
          <mxGeometry x="530" y="115" width="100" height="70" as="geometry" />
        </mxCell>
        <mxCell id="ugzp6V2DVJSi0lXBUaWw-3" value="" style="rounded=0;whiteSpace=wrap;html=1;dashed=1;fillColor=none;strokeColor=#618EE8;dashPattern=8 8;" vertex="1" parent="1">
          <mxGeometry x="150" y="370" width="529" height="260" as="geometry" />
        </mxCell>
        <mxCell id="ugzp6V2DVJSi0lXBUaWw-4" value="APP Server&lt;br&gt;192.168.10.1" style="fontColor=#0066CC;verticalAlign=top;verticalLabelPosition=bottom;labelPosition=center;align=center;html=1;outlineConnect=0;fillColor=#CCCCCC;strokeColor=#6881B3;gradientColor=none;gradientDirection=north;strokeWidth=2;shape=mxgraph.networks.desktop_pc;" vertex="1" parent="1">
          <mxGeometry x="290" y="521" width="30" height="60" as="geometry" />
        </mxCell>
        <mxCell id="ugzp6V2DVJSi0lXBUaWw-10" style="edgeStyle=orthogonalEdgeStyle;rounded=0;orthogonalLoop=1;jettySize=auto;html=1;" edge="1" parent="1" source="ugzp6V2DVJSi0lXBUaWw-5" target="ugzp6V2DVJSi0lXBUaWw-6">
          <mxGeometry relative="1" as="geometry" />
        </mxCell>
        <mxCell id="ugzp6V2DVJSi0lXBUaWw-5" value="防火墙" style="sketch=0;points=[[0,0,0],[0.25,0,0],[0.5,0,0],[0.75,0,0],[1,0,0],[0,1,0],[0.25,1,0],[0.5,1,0],[0.75,1,0],[1,1,0],[0,0.25,0],[0,0.5,0],[0,0.75,0],[1,0.25,0],[1,0.5,0],[1,0.75,0]];outlineConnect=0;fontColor=#232F3E;fillColor=#DD344C;strokeColor=#ffffff;dashed=0;verticalLabelPosition=bottom;verticalAlign=top;align=center;html=1;fontSize=12;fontStyle=0;aspect=fixed;shape=mxgraph.aws4.resourceIcon;resIcon=mxgraph.aws4.network_firewall;" vertex="1" parent="1">
          <mxGeometry x="375" y="220" width="78" height="78" as="geometry" />
        </mxCell>
        <mxCell id="ugzp6V2DVJSi0lXBUaWw-6" value="nginx" style="shape=image;html=1;verticalAlign=top;verticalLabelPosition=bottom;labelBackgroundColor=#ffffff;imageAspect=0;aspect=fixed;image=https://cdn4.iconfinder.com/data/icons/logos-brands-5/24/nginx-128.png" vertex="1" parent="1">
          <mxGeometry x="379" y="401" width="70" height="70" as="geometry" />
        </mxCell>
        <mxCell id="ugzp6V2DVJSi0lXBUaWw-7" value="管理端 Server&lt;br&gt;192.168.10.1&lt;br&gt;" style="fontColor=#0066CC;verticalAlign=top;verticalLabelPosition=bottom;labelPosition=center;align=center;html=1;outlineConnect=0;fillColor=#CCCCCC;strokeColor=#6881B3;gradientColor=none;gradientDirection=north;strokeWidth=2;shape=mxgraph.networks.desktop_pc;" vertex="1" parent="1">
          <mxGeometry x="500" y="521" width="30" height="60" as="geometry" />
        </mxCell>
        <mxCell id="ugzp6V2DVJSi0lXBUaWw-11" style="edgeStyle=orthogonalEdgeStyle;rounded=0;orthogonalLoop=1;jettySize=auto;html=1;entryX=0.5;entryY=0;entryDx=0;entryDy=0;entryPerimeter=0;" edge="1" parent="1" source="ugzp6V2DVJSi0lXBUaWw-6" target="ugzp6V2DVJSi0lXBUaWw-4">
          <mxGeometry relative="1" as="geometry" />
        </mxCell>
        <mxCell id="ugzp6V2DVJSi0lXBUaWw-12" style="edgeStyle=orthogonalEdgeStyle;rounded=0;orthogonalLoop=1;jettySize=auto;html=1;entryX=0.5;entryY=0;entryDx=0;entryDy=0;entryPerimeter=0;" edge="1" parent="1" source="ugzp6V2DVJSi0lXBUaWw-6" target="ugzp6V2DVJSi0lXBUaWw-7">
          <mxGeometry relative="1" as="geometry" />
        </mxCell>
        <mxCell id="ugzp6V2DVJSi0lXBUaWw-13" value="" style="rounded=0;whiteSpace=wrap;html=1;dashed=1;fillColor=none;strokeColor=#618EE8;dashPattern=8 8;" vertex="1" parent="1">
          <mxGeometry x="150" y="660" width="529" height="110" as="geometry" />
        </mxCell>
        <mxCell id="ugzp6V2DVJSi0lXBUaWw-14" value="" style="verticalLabelPosition=bottom;html=1;verticalAlign=top;align=center;strokeColor=none;fillColor=#00BEF2;shape=mxgraph.azure.mysql_database;" vertex="1" parent="1">
          <mxGeometry x="283" y="690" width="37.5" height="50" as="geometry" />
        </mxCell>
        <mxCell id="ugzp6V2DVJSi0lXBUaWw-15" value="" style="outlineConnect=0;dashed=0;verticalLabelPosition=bottom;verticalAlign=top;align=center;html=1;shape=mxgraph.aws3.redis;fillColor=#2E73B8;gradientColor=none;" vertex="1" parent="1">
          <mxGeometry x="393" y="690" width="56" height="57" as="geometry" />
        </mxCell>
        <mxCell id="ugzp6V2DVJSi0lXBUaWw-16" value="" style="sketch=0;points=[[0,0,0],[0.25,0,0],[0.5,0,0],[0.75,0,0],[1,0,0],[0,1,0],[0.25,1,0],[0.5,1,0],[0.75,1,0],[1,1,0],[0,0.25,0],[0,0.5,0],[0,0.75,0],[1,0.25,0],[1,0.5,0],[1,0.75,0]];outlineConnect=0;fontColor=#232F3E;fillColor=#C925D1;strokeColor=#ffffff;dashed=0;verticalLabelPosition=bottom;verticalAlign=top;align=center;html=1;fontSize=12;fontStyle=0;aspect=fixed;shape=mxgraph.aws4.resourceIcon;resIcon=mxgraph.aws4.managed_apache_cassandra_service;" vertex="1" parent="1">
          <mxGeometry x="520" y="690" width="57" height="57" as="geometry" />
        </mxCell>
        <mxCell id="ugzp6V2DVJSi0lXBUaWw-17" value="数据服务器：192.168.10.2" style="text;html=1;strokeColor=none;fillColor=none;align=center;verticalAlign=middle;whiteSpace=wrap;rounded=0;fontColor=#618EE8;" vertex="1" parent="1">
          <mxGeometry x="150" y="660" width="160" height="30" as="geometry" />
        </mxCell>
        <mxCell id="ugzp6V2DVJSi0lXBUaWw-18" value="应用服务器：192.168.10.1" style="text;html=1;strokeColor=none;fillColor=none;align=center;verticalAlign=middle;whiteSpace=wrap;rounded=0;fontColor=#618EE8;" vertex="1" parent="1">
          <mxGeometry x="150" y="371" width="160" height="30" as="geometry" />
        </mxCell>
        <mxCell id="ugzp6V2DVJSi0lXBUaWw-19" value="&lt;h1&gt;说明&lt;/h1&gt;&lt;p&gt;&lt;b&gt;应用服务器与数据服务器内网互通&lt;/b&gt;&lt;br&gt;&lt;br&gt;&lt;/p&gt;&lt;p&gt;应用服务器硬件要求：内存至少8G，硬盘200G&lt;/p&gt;&lt;p&gt;数据服务器：内存至少8G，硬盘300G&lt;/p&gt;" style="text;html=1;strokeColor=#d6b656;fillColor=#fff2cc;spacing=5;spacingTop=-20;whiteSpace=wrap;overflow=hidden;rounded=0;" vertex="1" parent="1">
          <mxGeometry x="-90" y="401" width="190" height="159" as="geometry" />
        </mxCell>
      </root>
    </mxGraphModel>
  </diagram>
</mxfile>
